<svg version="1.2" xmlns="http://www.w3.org/2000/svg" viewBox="2059 -7.105427357601002e-15 1264 214" width="1264" height="215">
	<style>
		.s0 { fill: #fa8507 } 
		.s1 { fill: #395253 } 
	</style>
	<g id="Layer 1">
		<path class="s0" d="m3261.88 92c-1.48-0.5-2.93-1.17-4.45-1.46-3.93-0.76-7.88-1.34-12.32-2.67 17.36-16.43 34.72-32.86 52.7-49.87 5.06 24.11 9.43 47.93 14.01 72.43-3.74-1.79-6.97-3.35-10.21-4.87-2.27-1.05-4.56-2.04-7.12-3.22-1.75-0.95-3.23-1.74-4.83-2.61-0.37 0.9-0.66 1.48-0.86 2.09-2.52 7.43-5.07 14.84-7.54 22.28-3.37 10.16-6.63 20.36-10.02 30.51-3.6 10.77-7.19 21.54-10.99 32.23-2.3 6.46-7.11 10.64-13.84 11.55-5.09 0.68-10.45 0.72-15.5-0.08-6.27-0.99-10.85-5.1-13.15-11.08-2.7-7.01-5.03-14.17-7.42-21.29-3.89-11.53-7.7-23.09-11.53-34.64-3.53-10.62-7.02-21.25-10.56-31.87-0.55-1.64-1.27-3.24-2.15-5.47-2.41 7.12-4.64 13.51-6.74 19.95-3.5 10.71-6.89 21.47-10.37 32.19-3.31 10.18-6.61 20.36-10.02 30.5-1.41 4.17-2.82 8.38-4.73 12.34-2.61 5.41-7.12 8.78-13.15 9.51-3.92 0.48-7.94 0.71-11.88 0.48-7.52-0.44-12.81-4.34-15.42-11.45-2.78-7.59-5.36-15.25-8.01-22.89-1.5-4.32-2.86-8.7-4.49-12.97-1.09-2.84-3.28-3.65-6.07-2.62-0.79-0.17-1.57-0.48-2.35-0.48-8.86-0.03-17.72-0.01-26.87 0-3.09 0.02-5.89 0.04-8.93 0.03-13.24-0.01-26.26 0.02-39.5 0.01-1.4-0.01-2.59 0.01-4.01-0.01-27.92-0.04-55.6-0.05-83.29-0.05-2.49 0-4.99 0.06-7.48 0.09-7.51-0.02-15.02-0.04-23-0.07-13.97 0.02-27.48 0.05-41 0.07-2.17-0.02-4.35-0.04-6.92-0.07-0.62 0.02-0.85 0.05-1.08 0.07-1.67-0.02-3.35-0.04-5.46-0.07-1.48 0.02-2.54 0.05-3.59 0.08-0.71-0.02-1.41-0.03-2.38-0.06-0.53 0-0.8 0.03-1.07 0.05-0.85-0.02-1.71-0.04-2.99-0.07-1.62 0.02-2.81 0.05-3.99 0.07-4.1 0.04-8.19 0.08-12.54 0.03-2.38-0.09-4.5-0.09-6.97-0.09-0.21-1.75-0.4-3.39-0.59-5.04 0.02-0.85 0.04-1.71 0.07-2.99-0.02-1.45-0.05-2.48-0.07-3.51 0.02-0.37 0.04-0.74 0.07-1.51-0.02-1.09-0.05-1.79-0.07-2.49 0.14-4.02 0.27-8.05 0.74-12.28 1.83-0.24 3.33-0.27 4.84-0.3 16.35 0.02 32.69 0.04 49.46 0.07 0.8-0.02 1.18-0.05 1.56-0.07 0.22 0.02 0.44 0.04 1.05 0.07 2.07-0.02 3.76-0.05 5.45-0.07 1.51 0.02 3.02 0.04 4.96 0.07 0.96-0.02 1.5-0.05 2.04-0.07 0.53 0.02 1.06 0.04 1.95 0.07 0.59-0.02 0.82-0.05 1.05-0.07 1.01 0.02 2.03 0.04 3.47 0.07 1.12-0.02 1.82-0.05 2.51-0.07 10.52 0.02 21.03 0.04 31.77 0.03 0.98 0 1.73 0.06 2.48 0.06q79.43 0 158.86-0.01c0.74 0 1.49-0.08 2.54-0.21 1.95 0.01 3.58 0.12 5.22 0.22 3.46 0.21 7.03-0.05 10.37 0.71 8.7 2 15.14 7.34 18.68 15.43 2.88 6.56 4.82 13.53 7.11 20.33 1.87 5.58 3.61 11.21 5.53 16.77 0.25 0.71 1.22 1.61 1.87 1.64 0.68 0.02 1.46-0.86 2.07-1.47 0.32-0.32 0.38-0.89 0.53-1.36 3.18-9.69 6.29-19.41 9.53-29.09 3.38-10.07 6.93-20.09 10.29-30.17 4.27-12.78 8.43-25.6 12.64-38.39 3.03-9.19 12.53-14.2 22.15-11.09 6.37 2.05 9.89 6.64 11.9 12.71q9.23 27.79 18.45 55.58c2.7 8.15 5.33 16.32 8.08 24.45q2.93 8.71 6.19 17.3c0.28 0.74 1.5 1.48 2.34 1.53 0.69 0.05 1.55-0.82 2.15-1.46 0.42-0.44 0.56-1.17 0.77-1.79q2.26-6.74 4.5-13.49 7.6-22.8 15.21-45.59c2.22-6.64 4.47-13.26 6.96-20.65-2.45-0.15-4.53-0.28-6.6-0.4z"/>
		<path class="s1" d="m2315.33 175.56c2.3-4.94 4.59-9.89 6.97-15.13 2.58-5.68 5.07-11.04 7.55-16.41 2.67-5.95 5.34-11.89 8.19-18.11 3.41-7.33 6.63-14.37 9.85-21.42q3.96-8.59 7.91-17.18c0.68-1.47 1.33-2.95 2.18-4.69 1.25-2.88 2.32-5.49 3.38-8.1q3.97-8.53 7.95-17.05c0.48-1.03 0.99-2.04 1.68-3.27 7.4-0.39 14.6-0.58 21.99-0.74 0.57 0.01 0.95-0.01 1.49 0 0.38 0.01 0.61-0.01 1.06 0 3.56 0.05 6.88 0.05 10.26 0.18 0.23 0.04 0.4-0.04 0.76-0.12 1.06 0.55 2.19 0.93 2.73 1.71 1.01 1.48 1.68 3.2 2.49 4.82 1.86 4.21 3.72 8.42 5.79 12.91 1.54 3.22 2.88 6.16 4.21 9.09q2.77 6.22 5.53 12.43c0.69 1.56 1.37 3.12 2.26 4.97 1.54 3.07 2.88 5.84 4.21 8.6 1.64 3.88 3.2 7.79 4.94 11.62 4.06 8.95 8.23 17.85 12.32 26.79 5.97 13.07 11.9 26.15 17.85 39.23 0.13 0.3 0.3 0.58 0.64 1.15 1.2 2.43 2.23 4.57 3.25 6.71q1.68 4.04 3.38 8.07c0.72 1.7 1.46 3.39 2.32 5.39-9.44 0-18.57 0-28.17 0-2.04-0.01-3.64-0.2-5.19 0.02-3.56 0.5-6-0.46-6.82-4.3-0.2-0.98-0.94-1.83-1.43-2.75q-2.62-6.16-5.22-12.33c-0.34-0.82-0.65-1.66-1.16-2.77-1.34-2.83-2.5-5.38-3.65-7.93-0.43-2.26-1.61-3.02-4.06-3.01-21.89 0.12-43.79 0.07-65.68 0.08-3.75 0-4.22 0.37-5.32 4.27-1.36 3.3-2.69 6.41-4.21 9.8-1.89 4.31-3.59 8.33-5.29 12.35-0.73 1.51-1.74 2.95-2.12 4.54-0.47 1.97-1.64 2.06-3.24 2.04-4.38-0.07-8.77-0.02-13.62-0.02-5.3 0.03-10.14 0.05-14.99 0.07-0.22-0.02-0.45-0.04-1.04-0.06-1.07 0.02-1.76 0.04-2.46 0.06-1.12-0.06-2.25-0.12-3.59-0.19 2.89-6.34 5.7-12.5 8.6-18.96 1.9-4.33 3.71-8.35 5.52-12.36zm55.85-29.58c14.17 0 28.34 0 42.65 0-3.04-7.26-5.9-14.16-8.85-21.02-0.85-1.99-1.95-3.88-2.81-6.06-0.1-0.13-0.2-0.27-0.36-0.72-0.19-0.46-0.38-0.92-0.54-1.61 0 0-0.1-0.2-0.25-0.56-1.58-3.87-3.1-7.78-4.78-11.61-1.87-4.27-3.87-8.48-5.53-12.89-0.03-0.11-0.06-0.22-0.27-0.59-0.28-0.58-0.56-1.16-0.96-1.99-3.14 7.83-6.19 15.44-9.56 23.22-0.84 2.12-1.69 4.24-2.7 6.69-3.65 8.7-7.3 17.4-11.23 26.23 0.11 0.28 0.21 0.56 0.68 0.91 0.38-0.03 0.75-0.05 1.55 0.01 0.86-0.03 1.72-0.06 2.96-0.01z"/>
		<path class="s0" d="m2754.31 120.41c0.85 0.02 1.71 0.04 2.96 0.07 0.78-0.02 1.16-0.05 1.54-0.07 0.21 0.03 0.42 0.05 0.8 0.33 0.22 9.08 0.25 17.92 0.28 26.77 0 0-0.07 0.22-0.26 0.35-0.57 0.29-0.96 0.44-1.35 0.59-0.68 0.02-1.35 0.04-2.28-0.08-0.41-0.05-0.58 0.03-0.75 0.11-0.35 0.01-0.7 0.02-1.27-0.11-0.39-0.05-0.56 0.03-0.73 0.11 0 0-0.22 0.04-0.46 0.02-0.49-0.03-0.75-0.04-1.01-0.05-0.2 0.02-0.41 0.04-0.82-0.08-0.37-0.05-0.54 0.03-0.71 0.11-0.2 0.01-0.41 0.02-0.83-0.14-0.52-0.07-0.83 0.02-1.14 0.12 0 0-0.22 0.03-0.37-0.1-0.32-0.04-0.49 0.04-0.66 0.12 0 0-0.21 0.01-0.44-0.18-0.48-0.23-0.73-0.29-0.98-0.29q-40.91-0.02-81.82 0.01c-0.6 0-1.2 0.31-1.96 0.4-3.42-0.73-4.73 0.39-4.74 3.96-0.03 8.43 0.01 16.86-0.03 25.29-0.01 1.38-0.2 2.78-0.49 4.13-2.27 10.61-7.91 18.54-18.18 22.74-2.09 0.85-4.21 1.59-6.31 2.39-0.22 0.03-0.44 0.06-1.06 0.09-45.85 0-91.3 0-136.84 0 0-9.44 0-18.57 0-27.98 1.79-0.18 3.56-0.53 5.32-0.51 8.19 0.1 16.38 0.36 24.58 0.45 7.33 0.08 14.66 0.02 21.98 0.02q38.49 0.01 76.97-0.03c0.81 0 1.62-0.49 2.43-0.75 0 0 0.11-0.1 0.32-0.08 2.9 0.56 4.27-0.47 4.29-3.24 0.04-6.08 0-12.16 0.01-18.23 0.02-6.96 0.53-13.89 4.1-20.03 1.9-3.28 4.21-6.52 6.99-9.06 5.83-5.32 13.15-7.06 21.11-7.13 0.74 0.01 1.27-0.02 1.81-0.04 0.22 0.02 0.44 0.04 1.03 0.07 1.07-0.02 1.77-0.05 2.47-0.07q16.08 0.05 32.16 0.07c16.78 0.01 33.57 0 50.81 0 1.47-0.02 2.5-0.05 3.53-0.07z"/>
		<path class="s1" d="m2881.89 184.51c0 7.4 0 14.79 0 22.35-38.26 0-76.28 0-114.45 0 0-51.04 0-102.06 0-152.98 12.08 0 24.16 0 36.37 0 0 41.18 0 81.98 0 123.11 25.91 0 51.7 0 77.73 0.25 0.29 2.58 0.32 4.93 0.35 7.27z"/>
		<path class="s1" d="m3056.25 112.52c0 0 0.03 0.22-0.2 0.35-12.03 0.13-23.83 0.12-35.63 0.16-1.23 0-2.09-0.11-2.63-1.49-2.87-7.38-6.77-14.07-13.25-18.94-0.01 0.01-0.01 0-0.1-0.13-2.26-1.58-4.42-3.04-6.67-4.65-0.96-0.57-1.82-1.04-2.72-1.38-2.24-0.82-4.5-1.58-6.93-2.45-2.39-0.53-4.6-0.97-7-1.45-0.55-0.06-0.92-0.08-1.41-0.28-1.55-0.18-2.98-0.18-4.59-0.22-0.57-0.01-0.95 0.01-1.55 0-2.78 0.13-5.33 0.38-7.87 0.44-5.2 0.13-9.87 1.9-14.5 4.42-3.25 2.23-6.35 4.4-9.61 6.64-3.89 3.02-6.89 6.57-8.85 10.94-1.13 2.29-2.46 4.51-3.3 6.9-0.47 1.31-1.01 1.65-2.25 1.64-3.97-0.04-7.95-0.01-12.16 0.03-8.02 0.04-15.81 0.04-23.79 0.04 1.25-4.3 2.41-8.25 3.76-12.49 1.31-2.93 2.43-5.56 3.54-8.19 3.89-5.36 7.79-10.72 11.9-16.32 0.36-0.52 0.43-0.91 0.66-1.09q5.61-4.5 11.25-8.98c6.2-3.14 12.4-6.29 18.97-9.48 3.74-1.07 7.11-2.1 10.48-3.12 6.73-0.8 13.45-1.85 20.2-2.31 4.17-0.29 8.4 0.27 12.6 0.56 1.77 0.12 3.53 0.53 5.69 0.81 1.27 0.15 2.14 0.29 3.01 0.44 0.21 0.03 0.43 0.06 0.92 0.28 0.89 0.32 1.53 0.42 2.14 0.6q6.46 1.87 12.92 3.76c4.7 2.49 9.57 4.71 14.07 7.53 6.55 4.09 12.29 9.22 17.34 15.55 2.94 4.22 5.66 8.22 8.37 12.22 0.63 1.67 1.26 3.34 2.07 5.3 1.82 4.97 3.47 9.67 5.12 14.36z"/>
		<path class="s1" d="m2662.3 120.42c-7.76 0.1-15.08 1.84-20.91 7.16-2.78 2.54-5.09 5.78-6.99 9.06-3.57 6.14-4.08 13.07-4.1 20.03-0.01 6.07 0.03 12.15-0.01 18.23-0.02 2.77-1.39 3.8-4.25 3.18-0.18-0.24-0.23-0.41-0.23-0.57q0-61.25 0-122.49c0-0.25 0.06-0.49 0.13-1.03 2.29 0 4.59 0.05 6.89-0.02 3.63-0.1 7.26-0.41 10.89-0.41 5.96 0.02 11.92 0.3 17.88 0.32 3.91 0.01 7.82-0.33 11.73-0.36q11.22-0.1 22.43 0c5.16 0.05 10.32 0.4 15.48 0.38 7.32-0.02 14.63-0.27 21.95-0.39 2.8-0.05 5.6-0.1 8.38 0.06 0.61 0.04 1.66 0.96 1.67 1.49 0.1 9.23 0.07 18.46 0.07 27.73-27.04 0-53.9 0-80.99 0 0 11.62 0 23.43 0 35.66-0.01 0.94-0.02 1.45-0.02 1.97z"/>
		<path class="s1" d="m2963.46 209.06c-4.18-0.67-8.2-1.37-12.43-2.1-8.08-2.19-15.64-5.15-23.12-9.16-4.2-2.91-8.14-5.63-12.09-8.35q-4.78-5.09-9.53-10.21c-0.6-0.65-1.09-1.41-1.86-2.35-2.18-3.3-4.14-6.37-6.1-9.44-1.62-3.79-3.24-7.57-5.14-11.99 10.44 0 20.23 0 30.21-0.15 0.2-0.16 0.3-0.03 0.42 0.07 0.57 0.09 1.02 0.07 1.66 0.08 0.57 0.02 0.95-0.01 1.53 0 0.9 0.01 1.59-0.01 2.45 0 0.39 0.01 0.62-0.01 1.04 0 0.71 0.04 1.23 0.06 1.82 0.23 1.87 2.56 3.66 4.97 5.52 7.52 3.23 3.23 6.1 6.68 10.48 8.48 3.87 1.73 7.66 3.3 11.56 5.03 5.53 1.69 11.08 1.94 16.68 1.8 7.37-0.18 14.28-2.01 20.89-5.61 1.91-1.29 3.64-2.57 5.54-3.88 2.57-2.36 4.97-4.68 7.52-7.08 1.72-2.18 3.28-4.3 5.04-6.35 0.99 0.18 1.79 0.37 2.59 0.37 3.69 0.03 7.38 0.07 11.07 0 3.04-0.06 6.08-0.27 9.3-0.43 0.56-0.05 0.93-0.08 1.46-0.08 0.38 0.01 0.6-0.01 1.06 0 2.41 0.02 4.59-0.01 6.94 0 0.38 0.01 0.6-0.01 1.01 0 0.57 0.02 0.95-0.01 1.51 0 1.22 0.05 2.26 0.07 3.29 0.1-0.5 1.67-1 3.35-1.67 5.31-1.89 3.71-3.61 7.15-5.33 10.58-1 1.46-2.01 2.92-3.21 4.64-1.58 2.13-2.96 4.01-4.34 5.89-4.45 3.89-8.9 7.79-13.42 11.84-7.89 5.28-16.22 9.34-25.33 12.18-2.79 0.6-5.41 1.12-8.13 1.8-7.54 0.68-14.97 1.25-22.4 1.66-2.1 0.11-4.23-0.28-6.49-0.4z"/>
		<path class="s1" d="m2494.21 170.99c0.02-0.99 0.07-1.99 0.07-2.99q0.01-55.37 0.01-110.74c0-0.99 0-1.98 0-3.28 3.74 0 7.35 0.06 10.96-0.01 4.79-0.1 9.58-0.37 14.38-0.45 3.26-0.05 6.54 0.04 9.8 0.21 0.48 0.02 1.01 0.77 1.35 1.3 0.19 0.29 0.03 0.81 0.03 1.22q0 56.5 0 113c0 0.65 0 1.31 0 2.27-11.94 0-23.74 0-35.91-0.02-0.47-0.19-0.58-0.35-0.69-0.51z"/>
		<path class="s1" d="m2632.53 206.96c1.87-0.83 3.99-1.57 6.08-2.42 10.27-4.2 15.91-12.13 18.18-22.74 0.29-1.35 0.48-2.75 0.49-4.13 0.04-8.43 0-16.86 0.03-25.29 0.01-3.57 1.32-4.69 4.78-3.84 0.24 0.3 0.27 0.38 0.29 0.47q-0.03 27.37-0.07 54.74c0 0.98 0 1.97 0 3.25-9.95 0-19.75 0-29.78-0.04z"/>
		<path class="s1" d="m2249.71 207.28q-0.09 0.05-0.18 0.1c0.02 0 0.03 0-0.19-0.18-3.34-0.16-6.44-0.14-9.54-0.13-0.22-0.02-0.45-0.04-1.05-0.06-1.23 0.02-2.09 0.04-2.95 0.06-0.22-0.02-0.45-0.04-1.02-0.06-0.73 0.02-1.1 0.04-1.48 0.06-0.22-0.02-0.45-0.04-1-0.06-0.55 0.02-0.77 0.04-1 0.06-0.22-0.02-0.45-0.04-1.02-0.06-0.73 0.02-1.1 0.04-1.48 0.06-0.53-0.02-1.07-0.05-1.97-0.06-0.59 0.03-0.81 0.05-1.04 0.07-0.67-0.53-1.72-0.94-1.96-1.63-2.29-6.56-4.45-13.18-6.83-20.07-0.37-0.91-0.51-1.53-0.71-2.14q-2.4-7.02-4.8-14.04c0.05-0.18 0.1-0.36-0.02-0.81-0.98-2.66-1.8-5.04-2.61-7.42-1.48-4.72-2.93-9.45-4.45-14.16-1.29-4-2.67-7.98-4.07-12.34-0.22-0.82-0.4-1.27-0.55-1.73-2.48-7.59-4.95-15.18-7.46-22.96-0.41-1.5-0.81-2.81-1.21-4.12q-0.22-0.02-0.45-0.04c-0.3 1.12-0.61 2.24-1.08 3.45-0.68 1.81-1.19 3.51-1.71 5.22q-2 6.6-4.01 13.21c-1.52 4.42-3.08 8.83-4.55 13.26-0.91 2.75-1.69 5.55-2.72 8.62-0.9 2.88-1.61 5.47-2.33 8.06-2.48 7.41-5 14.81-7.45 22.23-1.95 5.9-3.84 11.83-5.72 17.76-0.81 2.54-1.55 5.1-2.47 7.92-0.19 0.56-0.22 0.85-0.26 1.15 0 0-0.07 0.21-0.31 0.35-10.25 0.17-20.25 0.2-30.26 0.22q-4.11 0-8.19 0c-4.13-12.09-8.24-23.97-12.22-35.89-4.43-13.23-8.76-26.51-13.11-39.77-2.19-6.64-4.32-13.29-6.52-19.92-0.47-1.4-1.27-2.68-1.74-4.07-0.42-1.23-0.6-2.53-1.05-4.09-1.48-4.14-2.8-8-4.11-11.86-0.07-0.44-0.13-0.89-0.37-1.61-1.33-3.81-2.48-7.35-3.63-10.89-2.25-6.95-4.46-13.91-6.74-20.85-1.42-4.31-1.47-4.34 3.17-4.38 10.16-0.1 20.32-0.11 30.48-0.27 1.89-0.03 2.55 0.75 3.07 2.39 4.77 14.92 9.61 29.82 14.44 44.73 4.49 13.82 9.01 27.64 13.49 41.47 1.77 5.46 3.46 10.95 5.19 16.43q0.36 0.05 0.73 0.09c0.87-3.36 1.75-6.73 2.78-10.38 0.36-0.93 0.56-1.56 0.76-2.2 0.03-0.2 0.05-0.41 0.25-0.86 1.19-3.38 2.22-6.51 3.25-9.64 0.19-0.54 0.39-1.08 0.77-1.9 1.19-3.71 2.21-7.15 3.23-10.6 1.36-4.19 2.72-8.38 4.27-12.88 2.36-7.4 4.54-14.51 6.73-21.62 1.36-4.19 2.72-8.38 4.27-12.87 1.56-4.89 2.94-9.48 4.33-14.07 0.66-1.89 1.42-3.75 1.94-5.67 0.35-1.28 0.78-1.91 2.26-1.93q15.27-0.13 30.53-0.49c1.92-0.05 2.73 0.6 3.3 2.42 4.07 13.11 8.25 26.19 12.44 39.26 3.32 10.36 6.71 20.71 10.06 31.06 0.54 1.7 1.04 3.41 1.74 5.41 1.72 4.99 3.25 9.68 4.78 14.38 0.98 3.04 1.95 6.08 2.94 9.5 0.41 1.52 0.81 2.65 1.41 4.36 2.09-6.76 4.05-13.06 6-19.36 2.19-6.69 4.39-13.39 6.77-20.39 0.36-1 0.51-1.71 0.72-2.4q2.05-6.58 4.11-13.15c1.93-5.74 3.9-11.46 5.8-17.2 2.36-7.15 4.67-14.32 7-21.49 0.1-0.3 0.12-0.63 0.37-1.25 1.06-3.21 1.94-6.14 2.83-9.06 0.56-1.69 1.66-2.17 3.47-2.1 4.49 0.17 8.98 0.05 13.76 0.18 0.46 0.05 0.63-0.04 0.8-0.12 0.36 0 0.71 0 1.34 0.18 4.38 0.07 8.5-0.04 12.62-0.14 0 0 0.21-0.03 0.37 0.09 0.33 0.04 0.5-0.05 0.67-0.13 0.54 0.16 1.07 0.31 1.96 0.46 0.72 0.02 1.09 0.04 1.46 0.06 0 0 0.02-0.03 0.02 0.17-1.03 3.57-2.06 6.94-3.09 10.3-1.63 4.7-3.26 9.41-4.94 14.47-2.5 7.92-4.94 15.47-7.39 23.02-1.41 4.14-2.81 8.29-4.28 12.65-0.06 0.21-0.06 0.25-0.06 0.25 0 0-0.17 0.15-0.3 0.37-1.75 5.28-3.38 10.34-4.98 15.41q-1.71 5.4-3.39 10.82c-1.18 3.37-2.37 6.74-3.6 10.48-2.16 6.7-4.27 13.05-6.38 19.39-1.87 5.74-3.74 11.48-5.79 17.51-0.26 0.69-0.31 1.1-0.44 1.49q-2.19 6.79-4.39 13.57c-0.34 2.99-2.3 3.35-4.79 3.09-1.56-0.16-3.15-0.03-5.17-0.02-1.67 0.09-2.88 0.18-4.1 0.27z"/>
		<path id="Shape 2" fill-rule="evenodd" class="s1" d="m2366 39c-9.4 0-17-7.6-17-17 0-9.4 7.6-17 17-17 9.4 0 17 7.6 17 17 0 9.4-7.6 17-17 17z"/>
		<path id="Shape 2 copy 3" fill-rule="evenodd" class="s1" d="m2413 39c-9.4 0-17-7.6-17-17 0-9.4 7.6-17 17-17 9.4 0 17 7.6 17 17 0 9.4-7.6 17-17 17z"/>
	</g>
</svg>